<?xml version="1.0" standalone="no"?>
<!DOCTYPE svg PUBLIC "-//W3C//DTD SVG 1.1//EN" "http://www.w3.org/Graphics/SVG/1.1/DTD/svg11.dtd" >
<svg xmlns="http://www.w3.org/2000/svg" xmlns:xlink="http://www.w3.org/1999/xlink" version="1.1">
<metadata></metadata>
<defs>
<font id="neuzeit_grotesk_tblack" horiz-adv-x="1024" >
<font-face units-per-em="2048" ascent="1638" descent="-410" />
<missing-glyph horiz-adv-x="614" />
<glyph horiz-adv-x="0" />
<glyph unicode="&#xd;" horiz-adv-x="681" />
<glyph unicode=" "  horiz-adv-x="614" />
<glyph unicode="&#x09;" horiz-adv-x="614" />
<glyph unicode="&#xa0;" horiz-adv-x="614" />
<glyph unicode="!" horiz-adv-x="618" d="M137 141.5q0 75.5 49 123.5t125 48q74 0 122 -49t48 -125q0 -74 -49 -122t-123 -48q-76 0 -124 48.5t-48 124zM158 471v895h303v-895h-303z" />
<glyph unicode="&#x22;" horiz-adv-x="921" d="M49 1366h369l-64 -547h-241zM504 1366h366l-63 -547h-242z" />
<glyph unicode="#" d="M51 451v155h211l29 178h-187v156h209l56 371h151l-53 -371h180l53 371h158l-55 -371h168v-156h-191l-24 -178h168v-155h-191l-59 -396h-158l57 396h-178l-59 -396h-156l60 396h-189zM418 606h178l29 178h-183z" />
<glyph unicode="$" d="M59 965q0 170 112 283.5t282 117.5v145h102v-145q371 -57 385 -367h-272q2 45 -29 75t-84 38v-301q223 -72 314.5 -163t91.5 -236q0 -113 -58.5 -212.5t-152.5 -146.5q-68 -35 -195 -51v-176h-102v176q-168 8 -275.5 117.5t-111.5 271.5h278q-2 -106 109 -137v295 q-213 72 -303.5 167t-90.5 249zM334 981q0 -61 45 -98q21 -14 74 -37v266q-119 -16 -119 -131zM555 254q117 23 117 137q0 49 -25.5 76t-91.5 45v-258z" />
<glyph unicode="%" horiz-adv-x="1458" d="M76 944v160q0 150 61 213q70 76 205 76q119 0 197 -66q79 -72 79 -207v-217q0 -131 -68.5 -199.5t-199.5 -68.5q-135 0 -209 67q-66 66 -65 242zM244 29l882 1364l88 -54l-882 -1366zM266 922q0 -63 10 -86q16 -35 74 -35q47 0 64.5 27.5t17.5 101.5v174q0 70 -17.5 94.5 t-66.5 24.5q-47 0 -64.5 -24.5t-17.5 -94.5v-182zM840 281v161q0 150 61 213q72 76 205 76q131 0 203.5 -71.5t72.5 -202.5v-215q0 -131 -68.5 -200t-199.5 -69q-135 0 -209 68q-66 66 -65 240zM1030 258q0 -61 10 -84q16 -35 74 -35q47 0 64.5 28t17.5 99v176 q0 70 -17.5 94.5t-66.5 24.5q-47 0 -64.5 -24.5t-17.5 -94.5v-184z" />
<glyph unicode="&#x26;" horiz-adv-x="1345" d="M68 354q0 131 61 222.5t221 197.5q-61 90 -84.5 150.5t-23.5 130.5q0 137 103.5 223t266.5 86q160 0 263.5 -87t103.5 -220q0 -113 -78 -213q-43 -59 -149 -131l157 -205q106 92 205 205l205 -181q-127 -143 -236 -239l236 -293h-363l-88 106q-211 -147 -387 -147 q-184 0 -298.5 109.5t-114.5 285.5zM373 381q0 -59 43 -101t102 -42q96 0 170 86l-184 229q-131 -78 -131 -172zM532 1051q1 -55 62 -131q104 63 104 131q0 35 -22.5 59.5t-54.5 24.5q-35 0 -62 -26t-27 -58z" />
<glyph unicode="'" horiz-adv-x="479" d="M49 1366h379l-63 -547h-252z" />
<glyph unicode="(" horiz-adv-x="694" d="M68 483q0 305 129 615q49 113 95 184.5t124 157.5l196 -180q-268 -362 -268 -795q0 -404 268 -754l-213 -176q-332 451 -331 948z" />
<glyph unicode=")" horiz-adv-x="694" d="M82 -283q268 362 268 793q0 402 -268 756l213 174q332 -453 332 -948q0 -307 -131 -613q-47 -113 -92.5 -183.5t-124.5 -160.5z" />
<glyph unicode="*" horiz-adv-x="839" d="M109 1079l59 158l162 -49v178h168v-178l172 67l61 -155l-190 -76l129 -147l-129 -101l-127 148l-101 -148l-145 101l104 147z" />
<glyph unicode="+" d="M16 662v157h414v412h164v-412h416v-157h-416v-412h-164v412h-414z" />
<glyph unicode="," horiz-adv-x="563" d="M86 -199l92 512l287 -65l-172 -492z" />
<glyph unicode="-" horiz-adv-x="468" d="M0 365v272h469v-272h-469z" />
<glyph unicode="." horiz-adv-x="563" d="M109 141.5q0 75.5 49 123.5t125 48q74 0 122 -49t48 -125q0 -74 -49.5 -122t-122.5 -48q-76 0 -124 48.5t-48 124z" />
<glyph unicode="/" horiz-adv-x="802" d="M-117 -418l676 1784h203l-676 -1784h-203z" />
<glyph unicode="0" d="M74 485v430q0 248 98 353q115 127 332 127q195 0 315 -109q70 -61 100.5 -142t30.5 -204v-524q0 -227 -121 -340q-117 -104 -313 -105q-217 0 -336 113q-57 57 -81.5 147.5t-24.5 253.5zM385 444q0 -100 18 -131q31 -57 111 -57q76 0 107 59q23 37 22 146v454 q0 106 -29 146q-33 43 -100 43q-72 0 -100.5 -42.5t-28.5 -146.5v-471z" />
<glyph unicode="1" d="M236 870v285l534 248v-1403h-313v969z" />
<glyph unicode="2" d="M41 0l477 750q104 164 105 235q0 57 -36 92t-95 35q-102 0 -132 -88q-16 -45 -18 -127h-283v35q0 207 125 335t326 128q186 0 306 -106.5t120 -272.5q0 -96 -38 -192.5t-136 -245.5l-203 -308h342v-270h-860z" />
<glyph unicode="3" d="M49 401h279q8 -72 48 -111.5t105 -39.5q72 0 120 49t48 121q0 78 -47 128t-121 50q-59 0 -106 -31l-187 158l271 379h-353v262h859l-367 -510q162 -20 254 -132t92 -282q0 -205 -129 -338t-328 -133q-121 0 -221 52.5t-153 144.5q-53 86 -64 233z" />
<glyph unicode="4" d="M68 266v262l417 838h361v-838h108v-262h-108v-266h-297v266h-481zM309 528h240v467z" />
<glyph unicode="5" d="M72 297l266 100q43 -133 158 -133q68 0 111.5 47t43.5 119q0 70 -47 120t-110 50q-84 0 -136 -78h-227v844h748v-276h-467v-263q78 35 157 35q164 0 273.5 -122t109.5 -302q0 -205 -125 -336t-319 -131q-199 0 -326 133q-59 63 -110 193z" />
<glyph unicode="6" d="M63 410q0 193 173 462l315 494h348l-348 -537q31 6 45 7q150 0 257.5 -119t107.5 -283q0 -193 -134.5 -328t-326.5 -135q-186 0 -311.5 125t-125.5 314zM354 416q0 -68 44 -111t110 -43q68 0 115 46t47 112q0 70 -44 115t-110 45q-70 0 -116 -47.5t-46 -116.5z" />
<glyph unicode="7" d="M106 0l426 1087h-401v279h830l-535 -1366h-320z" />
<glyph unicode="8" d="M61 381q0 231 175 324q-139 82 -140 274q0 184 118 300t306 116q184 0 301 -114t117 -292q0 -198 -141 -284q166 -98 166 -308q0 -186 -129 -306t-328 -120q-197 0 -321 115t-124 295zM356 406q0 -68 43 -111t113 -43q66 0 110 44t44 110q0 63 -45.5 108t-108.5 45 q-68 0 -112 -44t-44 -109zM373 981q0 -63 42 -108.5t101 -45.5q61 0 106.5 45.5t45.5 104.5q0 61 -44.5 106t-103.5 45q-63 0 -105 -42t-42 -105z" />
<glyph unicode="9" d="M63 938q0 195 131.5 326t325.5 131q193 0 318 -127t125 -320q0 -199 -172 -465l-310 -483h-346l346 532q-8 -2 -20 -2q-170 0 -284 116t-114 292zM358 952q0 -68 44 -112.5t110 -44.5q68 0 114 45t46 110.5t-45.5 111.5t-108.5 46q-66 0 -113 -46t-47 -110z" />
<glyph unicode=":" horiz-adv-x="563" d="M109 141.5q0 75.5 49 123.5t125 48q74 0 122 -49t48 -125q0 -74 -49.5 -122t-122.5 -48q-76 0 -124 48.5t-48 124zM109 854q0 76 49 124t125 48q74 0 122 -49t48 -125q0 -74 -49.5 -122t-122.5 -48q-76 0 -124 48t-48 124z" />
<glyph unicode=";" horiz-adv-x="563" d="M86 -199l92 512l287 -65l-172 -492zM141 813q0 76 49 124t125 48q74 0 122 -49t48 -125q0 -74 -49 -122t-123 -48q-76 0 -124 48t-48 124z" />
<glyph unicode="&#x3c;" d="M68 551v283l886 475v-336l-528 -283l528 -282v-334z" />
<glyph unicode="=" d="M16 508v154h994v-154h-994zM16 819v154h994v-154h-994z" />
<glyph unicode="&#x3e;" d="M68 74v338l528 280l-528 283v334l886 -475v-285z" />
<glyph unicode="?" horiz-adv-x="935" d="M43 987q4 193 112.5 299.5t299.5 106.5q182 0 297.5 -103.5t115.5 -269.5q0 -186 -172 -311q-76 -55 -94 -81t-18 -71v-29v-32h-314q-2 35 -2 77q0 109 31 159t162 153q92 70 92 131q0 45 -29.5 71.5t-79.5 26.5q-109 0 -114 -127h-287zM256 141.5q0 75.5 49 123.5 t125 48q74 0 122 -49t48 -125q0 -74 -49 -122t-123 -48q-76 0 -124 48.5t-48 124z" />
<glyph unicode="@" horiz-adv-x="1572" d="M109 680q0 293 211.5 501t508.5 208q260 0 446.5 -171t186.5 -409q0 -207 -149.5 -372t-337.5 -165q-133 0 -144 113q-76 -63 -125 -86t-108 -23q-100 0 -160.5 69t-60.5 183q0 190 121 367q131 199 331 199q102 0 177 -80l18 43h184l-221 -576q-23 -57 -22 -80 q0 -39 53 -39q51 0 115 41q96 63 153 170t57 222q0 197 -151.5 337t-364.5 140q-246 0 -421 -176t-175 -424q0 -246 187 -420q168 -156 387 -156t381 131q67 49 145 158h105q-47 -98 -88 -151.5t-105 -104.5q-184 -150 -436 -149q-289 0 -493.5 205.5t-204.5 494.5zM547 457 q0 -86 78 -86q57 0 115.5 62.5t101.5 166.5l100 246q10 25 10 55q0 96 -80 96q-51 0 -108 -57q-86 -90 -151.5 -234.5t-65.5 -248.5z" />
<glyph unicode="A" horiz-adv-x="1320" d="M0 0l451 1366h421l449 -1366h-365l-59 197h-483l-60 -197h-354zM496 465h319l-160 510z" />
<glyph unicode="B" horiz-adv-x="1191" d="M129 0v1366h467q276 0 379 -88q121 -98 121 -281q0 -147 -92 -239q-51 -55 -144 -80q106 -23 164 -78q92 -86 92 -238q0 -205 -139 -299q-96 -63 -289 -63h-559zM461 238h121q106 0 152 36.5t46 120.5q0 100 -73 140q-43 24 -161 24h-9h-76v-321zM461 801h82 q113 0 165 39t52 120.5t-53.5 119.5t-167.5 38h-78v-317z" />
<glyph unicode="C" horiz-adv-x="1304" d="M70 680q0 174 69.5 326.5t192.5 248.5q174 137 432 138q160 0 278.5 -48.5t239.5 -158.5l-213 -223q-140 122 -291 122h-2q-164 0 -267 -109.5t-103 -285.5q0 -180 109.5 -294.5t281.5 -114.5h3q166 0 269 116l197 -229q-123 -104 -242 -149.5t-270 -45.5 q-328 0 -516 226q-168 203 -168 481z" />
<glyph unicode="D" horiz-adv-x="1327" d="M129 0v1366h399q176 0 294 -35t212 -114q223 -188 223 -521q0 -160 -57 -302t-160 -236q-174 -158 -475 -158h-436zM461 272h51q182 0 296 115t114 299q0 90 -34 177t-91 138q-109 98 -273 99h-63v-828z" />
<glyph unicode="E" horiz-adv-x="940" d="M68 0v1366h782v-268h-451v-279h451v-268h-451v-283h451v-268h-782z" />
<glyph unicode="F" horiz-adv-x="966" d="M129 0v1366h786v-268h-454v-279h454v-268h-454v-551h-332z" />
<glyph unicode="G" horiz-adv-x="1560" d="M70 680q0 303 203.5 508t506.5 205q172 0 321.5 -71t254.5 -200l-252 -194q-126 157 -311 157h-2q-164 0 -274.5 -116.5t-110.5 -290.5q0 -170 115.5 -287t283.5 -117q119 0 210 63.5t132 172.5h-336v268h698q2 -27 2 -71q0 -330 -225 -541q-215 -193 -502 -193 q-305 0 -509.5 203t-204.5 504z" />
<glyph unicode="H" horiz-adv-x="1372" d="M129 0v1366h332v-559h448v559h332v-1366h-332v539h-448v-539h-332z" />
<glyph unicode="I" horiz-adv-x="591" d="M129 0v1366h332v-1366h-332z" />
<glyph unicode="J" horiz-adv-x="796" d="M68 -27v295q23 -2 47 -2q115 0 174 49q39 31 52 84.5t13 169.5v529h-286v268h618v-852q0 -141 -19.5 -223t-68.5 -141q-78 -98 -191.5 -136.5t-338.5 -40.5z" />
<glyph unicode="K" horiz-adv-x="1175" d="M129 0v1366h332v-578l319 578h381l-381 -649l381 -717h-381l-319 598v-598h-332z" />
<glyph unicode="L" horiz-adv-x="946" d="M129 0v1366h332v-1098h444v-268h-776z" />
<glyph unicode="M" horiz-adv-x="1757" d="M129 0v1366h387l363 -735l358 735h389v-1366h-332v780l-415 -835l-418 835v-780h-332z" />
<glyph unicode="N" horiz-adv-x="1421" d="M129 0v1366h332l497 -768v768h332v-1366h-332l-497 778v-778h-332z" />
<glyph unicode="O" horiz-adv-x="1585" d="M70 678q0 322 247 541q199 174 492 174q303 0 505 -204t202 -509q0 -293 -209 -500t-506 -207q-305 0 -518 205t-213 500zM408 682q0 -168 111.5 -284.5t275.5 -116.5q160 0 272.5 115.5t112.5 279.5q0 176 -109.5 292.5t-273.5 116.5q-168 0 -278.5 -114.5 t-110.5 -288.5z" />
<glyph unicode="P" horiz-adv-x="1148" d="M129 0v1366h469q242 0 375 -118t133 -330q0 -215 -132 -344.5t-356 -129.5h-157v-444h-332zM461 717h92q102 0 159.5 49t57.5 139q0 84 -53 136.5t-142 52.5h-114v-377z" />
<glyph unicode="Q" horiz-adv-x="1583" d="M70 678q0 301 211 508t520 207q303 0 507.5 -201t204.5 -498q0 -274 -161 -465l118 -129l-237 -196l-113 141q-162 -72 -327 -72q-299 0 -511 207t-212 498zM408 682q0 -170 111.5 -284.5t275.5 -114.5q59 0 92 10l-90 108l237 197l99 -113q45 102 45 209 q0 164 -112 277.5t-271 113.5q-164 0 -275.5 -115.5t-111.5 -287.5z" />
<glyph unicode="R" horiz-adv-x="1220" d="M129 0v1366h442q305 0 437 -133q112 -116 112 -310q0 -316 -264 -421l301 -502h-397l-299 528v-528h-332zM461 715h106q102 0 159.5 49t57.5 139q0 86 -54 138.5t-142 52.5h-127v-379z" />
<glyph unicode="S" horiz-adv-x="1097" d="M55 414h326q-2 -10 -2 -23q0 -51 48 -88t114 -37q59 0 100 32t41 77q0 47 -39 76.5t-158 72.5q-223 80 -319 181.5t-96 259.5q0 193 130 310.5t343 117.5q207 0 332.5 -112t154.5 -318h-338q-14 137 -151 137q-61 0 -98 -30t-37 -79q0 -63 67 -102q25 -14 152 -64 q207 -78 290 -153q115 -104 115 -275q0 -190 -135 -307t-354 -117q-223 0 -354.5 119t-131.5 322z" />
<glyph unicode="T" horiz-adv-x="960" d="M0 1098v268h961v-268h-314v-1098h-332v1098h-315z" />
<glyph unicode="U" horiz-adv-x="1310" d="M109 586v780h331v-795q0 -145 47 -213q56 -77 165 -77h3q57 0 106.5 24.5t72.5 65.5q34 61 34 192v8v795h332v-780q0 -301 -141 -455q-145 -158 -402 -158q-268 0 -421 170q-127 141 -127 443z" />
<glyph unicode="V" horiz-adv-x="1163" d="M0 1366h342l231 -834l248 834h342l-411 -1366h-361z" />
<glyph unicode="W" horiz-adv-x="1751" d="M0 1366h352l176 -776l183 776h331l177 -795l186 795h346l-365 -1366h-344l-174 809l-174 -809h-342z" />
<glyph unicode="X" horiz-adv-x="1218" d="M6 0l418 733l-354 633h379l161 -328l174 328h377l-362 -633l411 -733h-376l-224 440l-223 -440h-381z" />
<glyph unicode="Y" horiz-adv-x="1169" d="M-27 1366h396l221 -420l217 420h389l-442 -764v-602h-332v602z" />
<glyph unicode="Z" horiz-adv-x="1138" d="M27 0l571 1098h-506v268h1020l-571 -1098h518v-268h-1032z" />
<glyph unicode="[" horiz-adv-x="694" d="M123 -418v1784h491v-178h-231v-1428h231v-178h-491z" />
<glyph unicode="\" horiz-adv-x="802" d="M41 1366h203l676 -1784h-203z" />
<glyph unicode="]" horiz-adv-x="694" d="M80 -240h231v1428h-231v178h491v-1784h-491v178z" />
<glyph unicode="^" d="M25 707l301 667h374l301 -667h-299l-188 440l-190 -440h-299z" />
<glyph unicode="_" d="M0 -111h1024v-198h-1024v198z" />
<glyph unicode="`" d="M182 1386h299l170 -290h-182z" />
<glyph unicode="a" horiz-adv-x="1273" d="M59 461q0 227 139.5 375.5t352.5 148.5q168 0 295 -139v102h311v-948h-311v106q-125 -143 -322 -143q-203 0 -334 140.5t-131 357.5zM391 467q0 -109 65.5 -183.5t159.5 -74.5q96 0 165 76.5t69 185.5q0 113 -65.5 184.5t-166 71.5t-164 -72.5t-63.5 -187.5z" />
<glyph unicode="b" horiz-adv-x="1271" d="M117 0v1366h311v-512q123 131 295 131q223 0 371 -164q118 -134 118 -348q0 -233 -131 -371.5t-348 -138.5q-104 0 -175 31.5t-130 107.5v-102h-311zM424 463q0 -109 64.5 -181.5t160.5 -72.5q102 0 167 72.5t65 185.5q0 111 -65 185.5t-161 74.5q-94 0 -162.5 -79 t-68.5 -185z" />
<glyph unicode="c" horiz-adv-x="968" d="M59 469q0 225 146.5 370.5t372.5 145.5q205 0 395 -164l-207 -186q-76 76 -174 76q-92 0 -155.5 -66.5t-63.5 -165.5q0 -102 67.5 -171.5t167.5 -69.5h2q73 0 156 67l186 -201q-162 -141 -370 -141q-111 0 -215.5 43t-178.5 119q-129 135 -129 344z" />
<glyph unicode="d" horiz-adv-x="1275" d="M59 463q0 256 170 399q139 123 318 123q172 0 301 -123v504h311v-1366h-311v106q-57 -78 -127 -110.5t-180 -32.5q-217 0 -349.5 137.5t-132.5 362.5zM391 463q0 -109 66.5 -181.5t165.5 -72.5q96 0 160.5 73.5t64.5 180.5q0 113 -64.5 188.5t-160.5 75.5 q-100 0 -166 -74.5t-66 -189.5z" />
<glyph unicode="e" horiz-adv-x="1153" d="M59 479.5q0 225.5 143.5 365.5t372.5 140q236 0 380.5 -148.5t144.5 -390.5v-38h-719q16 -80 74.5 -125t142.5 -45q135 0 186 104l287 -74q-158 -305 -479 -305q-231 0 -382 145.5t-151 371zM379 573h403q-33 154 -204 154q-166 0 -199 -154z" />
<glyph unicode="f" horiz-adv-x="610" d="M43 690v258h94v17q0 205 96.5 303t296.5 98h29v-289q-111 -14 -110 -112v-17h110v-258h-110v-690h-312v690h-94z" />
<glyph unicode="g" horiz-adv-x="1224" d="M23 465q0 233 135 376.5t354 143.5q184 0 293 -133v96h303v-844q0 -158 -28.5 -253t-98.5 -164q-152 -152 -414 -152q-281 0 -489 195l188 192q117 -129 285 -129q119 0 186.5 69.5t67.5 194.5v47q-125 -141 -328 -141q-102 0 -197.5 46t-158.5 128q-98 127 -98 328z M354 479q0 -106 64.5 -173.5t165.5 -67.5q119 0 182 79q35 47 35 132q0 123 -58.5 192.5t-162.5 69.5q-100 0 -163 -64.5t-63 -167.5z" />
<glyph unicode="h" horiz-adv-x="1103" d="M117 0v1366h311v-506q106 125 246 125q133 0 231 -88q49 -45 69.5 -107.5t20.5 -168.5v-621h-311v569q0 72 -34 115t-91 43q-61 0 -96 -41t-35 -117v-569h-311z" />
<glyph unicode="i" horiz-adv-x="542" d="M106 1224.5q0 71.5 47 119t121 47.5q72 0 118 -47.5t46 -120.5q0 -70 -47 -117t-118.5 -47t-119 47t-47.5 118.5zM117 0v948h311v-948h-311z" />
<glyph unicode="j" horiz-adv-x="542" d="M-51 -139q16 -2 45 -2q121 0 121 141v948h311v-948q0 -219 -95 -322.5t-298 -103.5q-14 0 -84 4v283zM104 1224.5q0 71.5 47 119t121 47.5q72 0 118 -47.5t46 -120.5q0 -70 -47 -117t-118.5 -47t-119 47t-47.5 118.5z" />
<glyph unicode="k" horiz-adv-x="999" d="M117 0v1366h311v-756l211 338h352l-276 -450l276 -498h-352l-211 379v-379h-311z" />
<glyph unicode="l" horiz-adv-x="542" d="M117 0v1366h311v-1366h-311z" />
<glyph unicode="m" horiz-adv-x="1642" d="M117 0v948h311v-114q79 151 254 151h2q190 0 260 -151q91 151 277 151h2q141 0 225 -84q47 -47 65.5 -107.5t18.5 -166.5v-627h-311v571q0 72 -32 114t-89.5 42t-89 -42t-31.5 -114v-571h-311v561q0 78 -33 122t-90 44q-117 0 -117 -166v-561h-311z" />
<glyph unicode="n" horiz-adv-x="1110" d="M117 0v948h311v-106q47 78 101.5 110.5t140.5 32.5q147 0 243 -92q47 -49 66.5 -117.5t19.5 -193.5v-582h-311v580q0 70 -35 108.5t-94 38.5t-95 -41t-36 -111v-575h-311z" />
<glyph unicode="o" horiz-adv-x="1183" d="M59 473q0 225 149.5 368.5t385.5 143.5q231 0 380.5 -147.5t149.5 -374.5q0 -211 -154.5 -355.5t-379.5 -144.5q-231 0 -381 143.5t-150 366.5zM371 473q0 -104 61.5 -169.5t159.5 -65.5q96 0 157.5 64.5t61.5 164.5q0 113 -57.5 177.5t-159.5 64.5q-100 0 -161.5 -64.5 t-61.5 -171.5z" />
<glyph unicode="p" horiz-adv-x="1280" d="M117 -418v1366h311v-90q106 127 295 127q139 0 254 -65q244 -141 244 -453q0 -231 -131.5 -367.5t-356.5 -136.5q-193 0 -305 119v-500h-311zM428 463q0 -115 61.5 -184.5t161.5 -69.5q102 0 170 71.5t68 180.5q0 115 -64.5 190.5t-162.5 75.5q-102 0 -168 -73.5 t-66 -190.5z" />
<glyph unicode="q" horiz-adv-x="1275" d="M59 461q0 231 140.5 377.5t359.5 146.5q180 0 289 -121v84h311v-1366h-311v494q-125 -113 -316 -113q-209 0 -341 139.5t-132 358.5zM391 469q0 -111 65.5 -185.5t162 -74.5t165 75.5t68.5 182.5q0 113 -65.5 186.5t-166 73.5t-165 -72.5t-64.5 -185.5z" />
<glyph unicode="r" horiz-adv-x="698" d="M117 0v948h311v-129q31 88 83 127t138 39h29v-319q-45 4 -57 4q-111 0 -162 -76q-31 -41 -31 -148v-446h-311z" />
<glyph unicode="s" horiz-adv-x="866" d="M47 283h295q10 -53 29.5 -75t58.5 -22q31 0 51.5 19.5t20.5 48.5q0 33 -30 53.5t-128 52.5q-156 51 -226.5 125t-70.5 187q0 141 105.5 227t277.5 86q217 0 315 -139q52 -72 52 -178h-289v18q0 33 -25.5 54.5t-64.5 21.5q-31 0 -52.5 -17.5t-21.5 -44.5q0 -57 109 -86 q170 -47 258 -108q104 -76 104 -221.5t-105.5 -233.5t-279.5 -88t-276.5 85t-106.5 235z" />
<glyph unicode="t" horiz-adv-x="604" d="M33 696v258h96v234h311v-234h109v-258h-109v-377q0 -61 76 -61h33v-258h-240q-96 0 -138 46t-42 151v499h-96z" />
<glyph unicode="u" horiz-adv-x="1083" d="M102 352v596h312v-573q0 -154 131 -154q59 0 92 35t33 96v596h311v-596q0 -201 -113 -293q-121 -96 -323 -96q-221 0 -338 105q-104 90 -105 284z" />
<glyph unicode="v" horiz-adv-x="976" d="M-10 948h321l183 -489l178 489h317l-340 -948h-319z" />
<glyph unicode="w" horiz-adv-x="1525" d="M-10 948h315l166 -518l139 518h299l148 -518l166 518h315l-299 -948h-330l-143 514l-141 -514h-338z" />
<glyph unicode="x" horiz-adv-x="1015" d="M-6 948h389l137 -207l127 207h377l-330 -479l330 -469h-377l-127 217l-137 -217h-363l322 469z" />
<glyph unicode="y" horiz-adv-x="991" d="M-10 948h329l164 -497l191 497h327l-518 -1370h-333l169 440z" />
<glyph unicode="z" horiz-adv-x="880" d="M25 0l352 690h-324v258h803l-352 -690h334v-258h-813z" />
<glyph unicode="{" d="M178 367v272q115 27 115 166v291q0 158 78 227q45 37 102 49t189 12q74 0 167 -2v-313l-28 2q-100 0 -137 -27q-23 -18 -28 -39.5t-7 -89.5v-170q0 -100 -24.5 -152t-94.5 -99q68 -41 93.5 -95.5t25.5 -156.5v-181q2 -74 9 -97t34 -40q29 -20 129 -20h28v-295 q-137 -4 -182 -4q-131 0 -192.5 17.5t-104.5 66.5q-57 66 -57 215v280q0 86 -25.5 127t-89.5 56z" />
<glyph unicode="|" d="M342 -342v1708h342v-1708h-342z" />
<glyph unicode="}" d="M195 -80h28q109 0 140.5 29t31.5 127v168q0 100 24.5 152.5t94.5 99.5q-68 43 -93.5 97t-25.5 155v182q-2 74 -9 97.5t-34 39.5q-35 20 -129 20h-28v295q113 2 182 2q131 0 192.5 -17t104.5 -67q57 -66 57 -213v-282q0 -86 25.5 -127t87.5 -55v-273q-113 -23 -113 -164 v-290q0 -162 -80 -230q-43 -37 -100 -49t-184 -12q-66 0 -172 4v311z" />
<glyph unicode="~" horiz-adv-x="1366" d="M188 1255q115 289 312 289q63 0 229 -67q117 -47 150 -47q76 0 139 120l162 -137q-63 -156 -136 -221.5t-184 -65.5q-43 0 -81 11.5t-148 56.5q-102 43 -146 43q-67 0 -133 -119z" />
<glyph unicode="&#xa1;" horiz-adv-x="618" d="M137 809q0 74 49 122t123 48q76 0 124 -48t48 -124t-49 -124t-125 -48q-74 0 -122 49t-48 125zM158 -418v895h303v-895h-303z" />
<glyph unicode="&#xa2;" d="M96 655q0 143 57.5 257t161.5 180q88 53 230 69v146h102v-146q174 -14 324 -155l-201 -177q-53 56 -123 68v-483q68 8 123 53l184 -186q-125 -113 -307 -131v-213h-102v213q-139 18 -238 83q-211 137 -211 422zM389 659q0 -196 156 -245v483q-68 -16 -105 -66 q-51 -70 -51 -172z" />
<glyph unicode="&#xa3;" d="M43 0q8 158 85 256t202 106q43 86 43 132q0 84 -68 139h-239v137h131q-45 59 -62.5 107.5t-17.5 115.5q0 172 118.5 282.5t301.5 110.5q106 0 202.5 -44t159.5 -119q59 -74 66 -228h-275q0 72 -38 116t-97 44q-55 0 -94 -41t-39 -98.5t26.5 -104.5t110.5 -141h264v-137 h-200q29 -68 28 -113q0 -41 -18.5 -79t-73.5 -109l10 -4l37 -13l43 -18l19 -12q119 -66 180 -66q55 0 117 53v-227q-94 -66 -201 -65q-51 0 -101.5 19t-150.5 81q-80 47 -127 47q-49 0 -79 -35t-32 -92h-231z" />
<glyph unicode="&#xa4;" horiz-adv-x="1472" d="M78 219l209 209q-74 131 -74 266q0 127 80 271l-215 213l174 176l219 -219q141 76 266 75q121 0 260 -73l215 215l174 -174l-210 -211q82 -135 81 -275q0 -121 -71 -262l207 -209l-170 -174l-209 207q-133 -82 -269 -82q-141 0 -286 82l-209 -207zM508 694 q0 -94 66.5 -161.5t160.5 -67.5t161 67.5t67 163.5q0 94 -67 162t-159 68q-96 0 -162.5 -66.5t-66.5 -165.5z" />
<glyph unicode="&#xa5;" d="M4 1366h326l188 -485l189 485h311l-201 -444h160v-150h-229l-76 -172v-14h264v-150h-264v-436h-314v436h-272v150h272v14l-77 172h-236v150h166z" />
<glyph unicode="&#xa6;" d="M342 313h342v-655h-342v655zM342 637v729h342v-729h-342z" />
<glyph unicode="&#xa7;" d="M72 494q0 123 61.5 207.5t169.5 113.5q-178 78 -178 262q0 143 104.5 229.5t274.5 86.5q119 0 215 -43t141 -117q43 -66 49 -191h-262q-10 137 -137 138q-51 0 -87 -32t-36 -79q0 -51 43 -86t172 -86q190 -76 258 -145q92 -88 92 -226q0 -219 -221 -325q166 -86 166 -264 q0 -152 -111.5 -250.5t-285.5 -98.5q-227 0 -336 156q-57 84 -64 215h267q0 -72 37.5 -115t101.5 -43q55 0 92 37t37 94q0 72 -62 109q-41 25 -153 63q-186 70 -252 138q-96 96 -96 252zM328 501.5q0 -71.5 53 -120.5t129 -49t128 49t52 121q0 70 -52 120t-126 50 q-78 0 -131 -49.5t-53 -121z" />
<glyph unicode="&#xa8;" d="M129 1253q0 66 45 111t113 45q66 0 110.5 -46t44.5 -114q0 -63 -45 -108t-110 -45q-68 0 -113 45t-45 112zM580 1253q0 66 44.5 111t112.5 45q66 0 111 -46t45 -114q0 -63 -45 -108t-111 -45q-68 0 -112.5 45t-44.5 112z" />
<glyph unicode="&#xa9;" horiz-adv-x="1570" d="M76 682q0 299 209 506t510 207q287 0 492.5 -210t205.5 -503t-208 -502t-499 -209q-293 0 -501.5 209t-208.5 502zM231 682q0 -233 163 -400t392 -167q227 0 389 165.5t162 401.5q0 233 -160.5 401t-383.5 168q-236 0 -399 -164.5t-163 -404.5zM399 688q0 180 109.5 295 t284.5 115q143 0 242.5 -83t107.5 -210h-152q-14 57 -66.5 89t-129.5 32q-92 0 -144.5 -64.5t-52.5 -175.5t52 -174t143 -63q86 0 140 40.5t64 116.5h154q-12 -152 -110.5 -241t-254.5 -89q-174 0 -280.5 114t-106.5 298z" />
<glyph unicode="&#xaa;" horiz-adv-x="825" d="M47 823q0 137 89 228.5t222 91.5q105 0 177 -72v49h208v-573h-208v49q-76 -72 -193 -72q-127 0 -211 84t-84 215zM268 827q0 -61 38 -103t95 -42q55 0 95.5 43t40.5 106q0 66 -37.5 105t-98.5 39q-57 0 -95 -41t-38 -107z" />
<glyph unicode="&#xab;" horiz-adv-x="872" d="M68 492l188 342h193l-193 -342l193 -334h-193zM410 492l188 342h193l-193 -342l193 -334h-193z" />
<glyph unicode="&#xac;" d="M68 303v297h886v-600h-329v303h-557z" />
<glyph unicode="&#xad;" horiz-adv-x="468" d="M0 365v272h469v-272h-469z" />
<glyph unicode="&#xae;" horiz-adv-x="1570" d="M76 682q0 299 209 506t510 207q287 0 492.5 -210t205.5 -503t-208 -502t-499 -209q-293 0 -501.5 209t-208.5 502zM231 682q0 -233 163 -400t390 -167q229 0 391 165.5t162 401.5q0 233 -160.5 401t-383.5 168q-236 0 -399 -164.5t-163 -404.5zM485 297v786h334 q121 0 182 -36q106 -59 107 -185q0 -131 -129 -190q66 -29 90.5 -80t26.5 -176q6 -84 20 -119h-188q-12 23 -19 102q-10 143 -41 176q-35 39 -108 39h-76v-317h-199zM684 729h92q135 0 135 119q0 115 -125 115h-102v-234z" />
<glyph unicode="&#xaf;" d="M180 1153v176h662v-176h-662z" />
<glyph unicode="&#xb0;" d="M184 1051q0 137 96.5 233t233.5 96t231.5 -96t94.5 -235q0 -133 -96.5 -229.5t-229.5 -96.5q-137 0 -233.5 96t-96.5 232zM315 1051q0 -82 57.5 -140.5t139.5 -58.5q78 0 137.5 58.5t59.5 136.5q0 86 -57.5 145t-141.5 59q-78 0 -136.5 -59t-58.5 -141z" />
<glyph unicode="&#xb1;" d="M16 33v157h994v-157h-994zM16 670v157h414v410h164v-410h416v-157h-416v-396h-164v396h-414z" />
<glyph unicode="&#xb2;" horiz-adv-x="679" d="M31 545l307 454q66 98 65 136q0 31 -20.5 49t-54.5 18q-47 0 -66.5 -27.5t-21.5 -99.5h-191q-2 12 -2 27q0 125 81 202.5t210 77.5q121 0 198.5 -64.5t77.5 -166.5q0 -104 -110 -260l-121 -172h209v-174h-561z" />
<glyph unicode="&#xb3;" horiz-adv-x="679" d="M41 797h188q10 -90 90 -90q41 0 70 27.5t29 66.5q0 43 -28 70.5t-71 27.5q-35 0 -65 -18l-127 98l166 219h-215v168h561l-231 -303q96 -14 153 -82t57 -168q0 -125 -82.5 -205t-209.5 -80q-168 0 -244 119q-33 55 -41 150z" />
<glyph unicode="&#xb4;" d="M373 1096l170 290h299l-285 -290h-184z" />
<glyph unicode="&#xb6;" d="M55 993q0 102 47.5 188.5t128.5 133.5q90 51 242 51h428v-1581h-147v1485h-162v-1485h-150v846h-30q-158 0 -257.5 101.5t-99.5 260.5z" />
<glyph unicode="&#xb7;" horiz-adv-x="563" d="M109 508q0 76 49 124t125 48q74 0 122 -49t48 -125q0 -74 -49.5 -122t-122.5 -48q-76 0 -124 48t-48 124z" />
<glyph unicode="&#xb8;" d="M315 -317q59 27 102.5 68.5t90.5 121.5l203 -88q-111 -137 -271 -205z" />
<glyph unicode="&#xb9;" horiz-adv-x="679" d="M158 1057v182l350 154v-846h-211v567z" />
<glyph unicode="&#xba;" horiz-adv-x="770" d="M47 829q0 137 94 224.5t246 87.5q145 0 240.5 -89t95.5 -227q0 -127 -98.5 -215t-241.5 -88q-145 0 -240.5 87t-95.5 220zM256 831q0 -59 36 -96t93 -37q55 0 91 36t36 93q0 66 -34 102t-93 36t-94 -36t-35 -98z" />
<glyph unicode="&#xbb;" horiz-adv-x="872" d="M82 158l192 342l-192 334h192l189 -334l-189 -342h-192zM424 158l192 342l-192 334h190l191 -334l-191 -342h-190z" />
<glyph unicode="&#xbc;" horiz-adv-x="1619" d="M158 1057v182l350 154v-846h-211v567zM324 29l882 1364l90 -54l-884 -1366zM995 158v164l265 497h237v-493h70v-168h-70v-158h-201v158h-301zM1159 319h148v269z" />
<glyph unicode="&#xbd;" horiz-adv-x="1619" d="M158 1057v182l350 154v-846h-211v567zM324 29l882 1364l90 -54l-884 -1366zM971 0l307 455q66 96 65 135q0 31 -20 49t-55 18q-47 0 -66.5 -27.5t-21.5 -99.5h-191q-2 12 -2 27q0 125 81 203t210 78q121 0 198.5 -64.5t77.5 -165.5q0 -102 -110 -262l-121 -172h209v-174 h-561z" />
<glyph unicode="&#xbe;" horiz-adv-x="1619" d="M41 797h188q10 -90 90 -90q41 0 70 27.5t29 66.5q0 43 -28 70.5t-71 27.5q-35 0 -65 -18l-127 98l166 219h-215v168h561l-231 -303q96 -14 153 -82t57 -168q0 -125 -82.5 -205t-209.5 -80q-168 0 -244 119q-33 55 -41 150zM326 29l882 1364l88 -54l-882 -1366zM995 158 v164l267 497h237v-493h68v-168h-68v-158h-201v158h-303zM1161 319h148v269z" />
<glyph unicode="&#xbf;" horiz-adv-x="935" d="M68 -70q0 98 39.5 171t132.5 141q76 53 94 77.5t18 71.5v29q-2 8 -2 33h316q2 -35 2 -78q0 -106 -31 -156.5t-162 -152.5q-92 -70 -92 -132q0 -45 29.5 -71.5t76.5 -26.5q111 0 115 127h287q-4 -195 -111.5 -301t-298.5 -106q-182 0 -297.5 104t-115.5 270zM334 809 q0 74 49 122t123 48q76 0 124 -48t48 -124t-49 -124t-125 -48q-74 0 -122 49t-48 125z" />
<glyph unicode="&#xc0;" horiz-adv-x="1320" d="M0 0l451 1366h421l449 -1366h-365l-59 197h-483l-60 -197h-354zM311 1769h307l199 -274h-205zM496 465h319l-160 510z" />
<glyph unicode="&#xc1;" horiz-adv-x="1320" d="M0 0l451 1366h421l449 -1366h-365l-59 197h-483l-60 -197h-354zM496 465h319l-160 510zM504 1495l198 274h308l-301 -274h-205z" />
<glyph unicode="&#xc2;" horiz-adv-x="1320" d="M0 0l451 1366h421l449 -1366h-365l-59 197h-483l-60 -197h-354zM293 1495l235 274h283l217 -274h-205l-159 125l-166 -125h-205zM496 465h319l-160 510z" />
<glyph unicode="&#xc3;" horiz-adv-x="1320" d="M0 0l451 1366h421l449 -1366h-365l-59 197h-483l-60 -197h-354zM305 1503q10 102 49 158q74 100 183 100q37 0 122 -30q98 -37 121 -37q46 -1 66 69h198q-16 -106 -53 -159q-72 -100 -174 -101q-47 0 -151 35q-92 29 -111 29q-47 0 -51 -64h-199zM496 465h319l-160 510z " />
<glyph unicode="&#xc4;" horiz-adv-x="1320" d="M0 0l451 1366h421l449 -1366h-365l-59 197h-483l-60 -197h-354zM276 1654.5q0 65.5 47.5 111.5t113 46t111.5 -47t46 -114q0 -63 -47 -109.5t-111 -46.5q-66 0 -113 47t-47 112.5zM496 465h319l-160 510zM721 1654.5q0 65.5 47 111.5t112.5 46t111.5 -47t46 -114 q0 -63 -47 -109.5t-110 -46.5q-66 0 -113 47t-47 112.5z" />
<glyph unicode="&#xc5;" horiz-adv-x="1320" d="M0 0l451 1366h421l449 -1366h-365l-59 197h-483l-60 -197h-354zM459 1645q0 84 58.5 140t146.5 56q84 0 142 -57.5t58 -143.5q0 -80 -59.5 -136t-142.5 -56q-86 0 -144.5 56.5t-58.5 140.5zM496 465h319l-160 510zM569 1644.5q0 -36.5 27 -63.5t66 -27q37 0 64.5 27 t27.5 61q0 39 -27 66t-65.5 27t-65.5 -27t-27 -63.5z" />
<glyph unicode="&#xc6;" horiz-adv-x="1779" d="M-14 0l729 1366h975v-268h-439v-279h439v-268h-439v-283h439v-268h-770v240h-455l-125 -240h-354zM600 498h320v612z" />
<glyph unicode="&#xc7;" horiz-adv-x="1304" d="M70 680q0 174 69.5 326.5t192.5 248.5q174 137 432 138q160 0 278.5 -48.5t239.5 -158.5l-213 -223q-141 123 -293 122q-164 0 -267 -109.5t-103 -285.5q0 -180 109.5 -294.5t281.5 -114.5q168 -1 272 116l197 -229q-123 -104 -242 -149.5t-270 -45.5q-328 0 -516 226 q-168 203 -168 481zM426 -330q182 80 211 203l289 -80q-119 -168 -357 -231z" />
<glyph unicode="&#xc8;" horiz-adv-x="940" d="M68 0v1366h782v-268h-451v-279h451v-268h-451v-283h451v-268h-782zM121 1769h307l199 -274h-205z" />
<glyph unicode="&#xc9;" horiz-adv-x="940" d="M68 0v1366h782v-268h-451v-279h451v-268h-451v-283h451v-268h-782zM311 1495l199 274h307l-301 -274h-205z" />
<glyph unicode="&#xca;" horiz-adv-x="940" d="M68 0v1366h782v-268h-451v-279h451v-268h-451v-283h451v-268h-782zM100 1495l236 274h282l218 -274h-205l-160 125l-166 -125h-205z" />
<glyph unicode="&#xcb;" horiz-adv-x="940" d="M68 0v1366h782v-268h-451v-279h451v-268h-451v-283h451v-268h-782zM86 1654.5q0 65.5 47 111.5t112.5 46t111.5 -47t46 -114q0 -63 -47 -109.5t-110 -46.5q-66 0 -113 47t-47 112.5zM530 1654.5q0 65.5 47.5 111.5t113 46t111.5 -47t46 -114q0 -63 -47 -109.5t-111 -46.5 q-66 0 -113 47t-47 112.5z" />
<glyph unicode="&#xcc;" horiz-adv-x="591" d="M-53 1769h307l199 -274h-205zM129 0v1366h332v-1366h-332z" />
<glyph unicode="&#xcd;" horiz-adv-x="591" d="M129 0v1366h332v-1366h-332zM137 1495l199 274h307l-301 -274h-205z" />
<glyph unicode="&#xce;" horiz-adv-x="591" d="M-72 1495l236 274h282l218 -274h-205l-160 125l-166 -125h-205zM131 0v1366h332v-1366h-332z" />
<glyph unicode="&#xcf;" horiz-adv-x="591" d="M-59 1654.5q0 65.5 47 111.5t112.5 46t111.5 -47t46 -114q0 -63 -47 -109.5t-111 -46.5q-66 0 -112.5 47t-46.5 112.5zM131 0v1366h332v-1366h-332zM330 1654.5q0 65.5 47 111.5t112.5 46t111.5 -47t46 -114q0 -63 -47 -109.5t-111 -46.5q-66 0 -112.5 47t-46.5 112.5z " />
<glyph unicode="&#xd0;" horiz-adv-x="1327" d="M6 561v258h123v547h399q176 0 294 -35t212 -114q223 -193 223 -521q0 -162 -57 -303t-160 -235q-174 -158 -475 -158h-436v561h-123zM461 272h51q182 0 296 115t114 297q0 92 -34 179t-91 138q-109 98 -273 99h-63v-281h198v-258h-198v-289z" />
<glyph unicode="&#xd1;" horiz-adv-x="1421" d="M129 0v1366h332l497 -768v768h332v-1366h-332l-497 778v-778h-332zM354 1503q10 102 49 158q74 100 183 100q37 0 123 -30q98 -37 120 -37q46 -1 66 69h199q-16 -106 -54 -159q-72 -100 -174 -101q-47 0 -151 35q-92 29 -111 29q-47 0 -51 -64h-199z" />
<glyph unicode="&#xd2;" horiz-adv-x="1585" d="M70 678q0 322 247 541q199 174 492 174q303 0 505 -204t202 -509q0 -293 -209 -500t-506 -207q-305 0 -518 205t-213 500zM408 682q0 -168 111.5 -284.5t275.5 -116.5q160 0 272.5 115.5t112.5 279.5q0 176 -109.5 292.5t-273.5 116.5q-168 0 -278.5 -114.5 t-110.5 -288.5zM444 1769h308l198 -274h-205z" />
<glyph unicode="&#xd3;" horiz-adv-x="1585" d="M70 678q0 322 247 541q199 174 492 174q303 0 505 -204t202 -509q0 -293 -209 -500t-506 -207q-305 0 -518 205t-213 500zM408 682q0 -168 111.5 -284.5t275.5 -116.5q160 0 272.5 115.5t112.5 279.5q0 176 -109.5 292.5t-273.5 116.5q-168 0 -278.5 -114.5 t-110.5 -288.5zM635 1495l199 274h307l-301 -274h-205z" />
<glyph unicode="&#xd4;" horiz-adv-x="1585" d="M70 678q0 322 247 541q199 174 492 174q303 0 505 -204t202 -509q0 -293 -209 -500t-506 -207q-305 0 -518 205t-213 500zM408 682q0 -168 111.5 -284.5t275.5 -116.5q160 0 272.5 115.5t112.5 279.5q0 176 -109.5 292.5t-273.5 116.5q-168 0 -278.5 -114.5 t-110.5 -288.5zM424 1495l235 274h283l217 -274h-205l-159 125l-166 -125h-205z" />
<glyph unicode="&#xd5;" horiz-adv-x="1585" d="M70 678q0 322 247 541q199 174 492 174q303 0 505 -204t202 -509q0 -293 -209 -500t-506 -207q-305 0 -518 205t-213 500zM408 682q0 -168 111.5 -284.5t275.5 -116.5q160 0 272.5 115.5t112.5 279.5q0 176 -109.5 292.5t-273.5 116.5q-168 0 -278.5 -114.5 t-110.5 -288.5zM436 1503q10 102 49 158q74 100 183 100q37 0 123 -30q98 -37 120 -37q46 -1 66 69h199q-16 -106 -54 -159q-72 -100 -174 -101q-47 0 -151 35q-92 29 -111 29q-47 0 -51 -64h-199z" />
<glyph unicode="&#xd6;" horiz-adv-x="1585" d="M70 678q0 322 247 541q199 174 492 174q303 0 505 -204t202 -509q0 -293 -209 -500t-506 -207q-305 0 -518 205t-213 500zM408 682q0 -168 111.5 -284.5t275.5 -116.5q160 0 272.5 115.5t112.5 279.5q0 176 -109.5 292.5t-273.5 116.5q-168 0 -278.5 -114.5 t-110.5 -288.5zM410 1654.5q0 65.5 47 111.5t112.5 46t111.5 -47t46 -114q0 -63 -47 -109.5t-111 -46.5q-66 0 -112.5 47t-46.5 112.5zM854 1654.5q0 65.5 47 111.5t112.5 46t111.5 -47t46 -114q0 -63 -47 -109.5t-110 -46.5q-66 0 -113 47t-47 112.5z" />
<glyph unicode="&#xd7;" d="M94 438l307 305l-303 299l113 113l299 -303l305 307l115 -117l-307 -303l305 -301l-111 -112l-303 305l-305 -307z" />
<glyph unicode="&#xd8;" horiz-adv-x="1581" d="M68 672q0 309 203.5 515t508.5 206q303 0 492 -185l151 140l74 -88l-143 -132q86 -123 121.5 -226t35.5 -224q0 -297 -214 -501t-523 -204q-274 1 -473 183l-143 -131l-74 84l139 129q-84 111 -119.5 210t-35.5 224zM406 682q0 -131 59 -221l567 528q-106 96 -237 96 q-164 0 -276.5 -117.5t-112.5 -285.5zM537 371q104 -90 245 -90q166 0 280 115.5t114 283.5q0 119 -66 223z" />
<glyph unicode="&#xd9;" horiz-adv-x="1310" d="M109 586v780h331v-795q0 -145 47 -213q57 -78 168 -77q57 0 106.5 24.5t72.5 65.5q35 63 34 200v795h332v-780q0 -301 -141 -455q-145 -158 -402 -158q-268 0 -421 170q-127 141 -127 443zM305 1769h307l199 -274h-205z" />
<glyph unicode="&#xda;" horiz-adv-x="1310" d="M109 586v780h331v-795q0 -145 47 -213q57 -78 168 -77q57 0 106.5 24.5t72.5 65.5q35 63 34 200v795h332v-780q0 -301 -141 -455q-145 -158 -402 -158q-268 0 -421 170q-127 141 -127 443zM498 1495l198 274h308l-302 -274h-204z" />
<glyph unicode="&#xdb;" horiz-adv-x="1310" d="M109 586v780h331v-795q0 -145 47 -213q57 -78 168 -77q57 0 106.5 24.5t72.5 65.5q35 63 34 200v795h332v-780q0 -301 -141 -455q-145 -158 -402 -158q-268 0 -421 170q-127 141 -127 443zM287 1495l235 274h283l217 -274h-205l-160 125l-165 -125h-205z" />
<glyph unicode="&#xdc;" horiz-adv-x="1310" d="M109 586v780h331v-795q0 -145 47 -213q57 -78 168 -77q57 0 106.5 24.5t72.5 65.5q35 63 34 200v795h332v-780q0 -301 -141 -455q-145 -158 -402 -158q-268 0 -421 170q-127 141 -127 443zM270 1654.5q0 65.5 47.5 111.5t113 46t111.5 -47t46 -114q0 -63 -47 -109.5 t-111 -46.5q-66 0 -113 47t-47 112.5zM715 1654.5q0 65.5 47 111.5t112.5 46t111.5 -47t46 -114q0 -63 -47 -109.5t-111 -46.5q-66 0 -112.5 47t-46.5 112.5z" />
<glyph unicode="&#xdd;" horiz-adv-x="1169" d="M-27 1366h396l221 -420l217 420h389l-442 -764v-602h-332v602zM428 1495l199 274h307l-301 -274h-205z" />
<glyph unicode="&#xde;" horiz-adv-x="1159" d="M129 0v1366h332v-137h137q242 0 375 -118t133 -331q0 -215 -132 -344t-356 -129h-157v-307h-332zM461 580h92q102 0 159.5 49t57.5 139q0 84 -53 136t-142 52h-114v-376z" />
<glyph unicode="&#xdf;" horiz-adv-x="1124" d="M51 690v258h86v101q0 150 115 245t297 95q193 0 311.5 -92.5t118.5 -241.5q0 -186 -166 -256q121 -41 187.5 -139.5t66.5 -237.5q0 -184 -94 -313q-94 -127 -281 -127q-92 0 -178 36l47 254q31 -6 45 -6q72 0 115 47t43 123q0 96 -72 146q-41 29 -131 36v279 q117 8 117 107q0 47 -34 80.5t-81 33.5q-66 0 -98 -55q-16 -29 -16 -115v-948h-312v690h-86z" />
<glyph unicode="&#xe0;" horiz-adv-x="1273" d="M59 461q0 227 139.5 375.5t352.5 148.5q168 0 295 -139v102h311v-948h-311v106q-125 -143 -322 -143q-203 0 -334 140.5t-131 357.5zM305 1386h299l170 -290h-182zM391 467q0 -109 65.5 -183.5t159.5 -74.5q96 0 165 76.5t69 185.5q0 113 -65.5 184.5t-166 71.5 t-164 -72.5t-63.5 -187.5z" />
<glyph unicode="&#xe1;" horiz-adv-x="1273" d="M59 461q0 227 139.5 375.5t352.5 148.5q168 0 295 -139v102h311v-948h-311v106q-125 -143 -322 -143q-203 0 -334 140.5t-131 357.5zM391 467q0 -109 65.5 -183.5t159.5 -74.5q96 0 165 76.5t69 185.5q0 113 -65.5 184.5t-166 71.5t-164 -72.5t-63.5 -187.5zM498 1096 l170 290h299l-285 -290h-184z" />
<glyph unicode="&#xe2;" horiz-adv-x="1273" d="M59 461q0 227 139.5 375.5t352.5 148.5q168 0 295 -139v102h311v-948h-311v106q-125 -143 -322 -143q-203 0 -334 140.5t-131 357.5zM293 1096l207 290h286l191 -290h-205l-135 141l-139 -141h-205zM391 467q0 -109 65.5 -183.5t159.5 -74.5q96 0 165 76.5t69 185.5 q0 113 -65.5 184.5t-166 71.5t-164 -72.5t-63.5 -187.5z" />
<glyph unicode="&#xe3;" horiz-adv-x="1273" d="M59 461q0 227 139.5 375.5t352.5 148.5q168 0 295 -139v102h311v-948h-311v106q-125 -143 -322 -143q-203 0 -334 140.5t-131 357.5zM305 1102q35 260 221 260q51 0 166 -43q49 -18 62 -19q35 0 41 66h198q-14 -119 -73.5 -189.5t-147.5 -70.5q-49 0 -164 45 q-55 18 -59 18q-33 0 -45 -67h-199zM391 467q0 -109 65.5 -183.5t159.5 -74.5q96 0 165 76.5t69 185.5q0 113 -65.5 184.5t-166 71.5t-164 -72.5t-63.5 -187.5z" />
<glyph unicode="&#xe4;" horiz-adv-x="1273" d="M59 461q0 227 139.5 375.5t352.5 148.5q168 0 295 -139v102h311v-948h-311v106q-125 -143 -322 -143q-203 0 -334 140.5t-131 357.5zM297 1253q0 66 45 111t113 45q66 0 110.5 -46t44.5 -114q0 -63 -45 -108t-110 -45q-68 0 -113 45t-45 112zM391 467q0 -109 65.5 -183.5 t159.5 -74.5q96 0 165 76.5t69 185.5q0 113 -65.5 184.5t-166 71.5t-164 -72.5t-63.5 -187.5zM748 1253q0 66 44.5 111t112.5 45q66 0 111 -46t45 -114q0 -63 -45 -108t-111 -45q-68 0 -112.5 45t-44.5 112z" />
<glyph unicode="&#xe5;" horiz-adv-x="1273" d="M59 461q0 227 139.5 375.5t352.5 148.5q168 0 295 -139v102h311v-948h-311v106q-125 -143 -322 -143q-203 0 -334 140.5t-131 357.5zM391 467q0 -109 65.5 -183.5t159.5 -74.5q96 0 165 76.5t69 185.5q0 113 -65.5 184.5t-166 71.5t-164 -72.5t-63.5 -187.5zM428 1249 q0 84 58.5 140.5t146.5 56.5q84 0 142.5 -57.5t58.5 -143.5q0 -80 -59.5 -136t-143.5 -56q-86 0 -144.5 56t-58.5 140zM539 1249q0 -37 26.5 -63.5t65.5 -26.5q37 0 64.5 26.5t27.5 61.5q0 39 -26.5 65.5t-65.5 26.5t-65.5 -26.5t-26.5 -63.5z" />
<glyph unicode="&#xe6;" horiz-adv-x="1953" d="M57 463q0 225 137.5 374.5t344.5 149.5q203 0 333 -127v88h297v-88q59 70 118 97.5t145 27.5q199 0 334 -149.5t135 -366.5q0 -39 -3 -66h-729q18 -76 81 -120.5t153 -44.5q61 0 102 23.5t82 82.5l287 -84q-160 -297 -434 -297q-92 0 -153.5 28.5t-117.5 96.5v-88h-297 v88q-119 -127 -317 -127q-225 0 -361.5 137.5t-136.5 364.5zM389 473q0 -111 71.5 -188.5t174.5 -77.5q98 0 163.5 70.5t65.5 177.5q0 121 -65.5 197.5t-169.5 76.5q-102 0 -171 -73.5t-69 -182.5zM1169 569h414q-39 158 -201 158q-82 0 -131 -37t-82 -121z" />
<glyph unicode="&#xe7;" horiz-adv-x="968" d="M59 469q0 225 146.5 370.5t372.5 145.5q205 0 395 -164l-207 -186q-76 76 -174 76q-92 0 -155.5 -66.5t-63.5 -165.5q0 -102 67.5 -171.5t167.5 -69.5q74 -1 158 67l186 -201q-162 -141 -370 -141q-111 0 -215.5 43t-178.5 119q-129 135 -129 344zM319 -317 q59 27 101.5 68.5t89.5 121.5l203 -88q-59 -76 -120 -121t-151 -84z" />
<glyph unicode="&#xe8;" horiz-adv-x="1153" d="M59 479.5q0 225.5 143.5 365.5t372.5 140q236 0 380.5 -148.5t144.5 -390.5v-38h-719q16 -80 74.5 -125t142.5 -45q135 0 186 104l287 -74q-158 -305 -479 -305q-231 0 -382 145.5t-151 371zM246 1386h299l170 -290h-183zM379 573h403q-33 154 -204 154q-166 0 -199 -154 z" />
<glyph unicode="&#xe9;" horiz-adv-x="1153" d="M59 479.5q0 225.5 143.5 365.5t372.5 140q236 0 380.5 -148.5t144.5 -390.5v-38h-719q16 -80 74.5 -125t142.5 -45q135 0 186 104l287 -74q-158 -305 -479 -305q-231 0 -382 145.5t-151 371zM379 573h403q-33 154 -204 154q-166 0 -199 -154zM436 1096l170 290h299 l-284 -290h-185z" />
<glyph unicode="&#xea;" horiz-adv-x="1153" d="M59 479.5q0 225.5 143.5 365.5t372.5 140q236 0 380.5 -148.5t144.5 -390.5v-38h-719q16 -80 74.5 -125t142.5 -45q135 0 186 104l287 -74q-158 -305 -479 -305q-231 0 -382 145.5t-151 371zM233 1096l207 290h287l191 -290h-205l-135 141l-140 -141h-205zM379 573h403 q-33 154 -204 154q-166 0 -199 -154z" />
<glyph unicode="&#xeb;" horiz-adv-x="1153" d="M59 479.5q0 225.5 143.5 365.5t372.5 140q236 0 380.5 -148.5t144.5 -390.5v-38h-719q16 -80 74.5 -125t142.5 -45q135 0 186 104l287 -74q-158 -305 -479 -305q-231 0 -382 145.5t-151 371zM193 1253q0 66 44.5 111t112.5 45q66 0 111 -46t45 -114q0 -63 -45 -108 t-111 -45q-68 0 -112.5 45t-44.5 112zM379 573h403q-33 154 -204 154q-166 0 -199 -154zM643 1253q0 66 45 111t113 45q66 0 110.5 -46t44.5 -114q0 -63 -45 -108t-110 -45q-68 0 -113 45t-45 112z" />
<glyph unicode="&#xec;" horiz-adv-x="542" d="M-59 1386h299l170 -290h-183zM115 0v948h311v-948h-311z" />
<glyph unicode="&#xed;" horiz-adv-x="542" d="M117 0v948h311v-948h-311zM133 1096l170 290h299l-285 -290h-184z" />
<glyph unicode="&#xee;" horiz-adv-x="542" d="M-72 1096l207 290h287l190 -290h-204l-136 141l-139 -141h-205zM115 0v948h311v-948h-311z" />
<glyph unicode="&#xef;" horiz-adv-x="542" d="M-84 1253q0 66 45 111t113 45q66 0 110.5 -46t44.5 -114q0 -63 -45 -108t-110 -45q-68 0 -113 45t-45 112zM117 0v948h311v-948h-311zM311 1253q0 66 45 111t113 45q66 0 111 -46t45 -114q0 -63 -45 -108t-111 -45q-68 0 -113 45t-45 112z" />
<glyph unicode="&#xf0;" horiz-adv-x="1185" d="M59 471q0 227 148.5 370.5t384.5 143.5q80 0 156 -20q-27 72 -55.5 116.5t-86.5 102.5l-196 -105l-62 117l144 76q-25 23 -95.5 55.5t-117.5 44.5l53 88q158 -25 307 -108l213 114l68 -116l-148 -74q127 -94 199 -211q156 -254 155 -551q0 -299 -190 -442 q-145 -111 -344 -111q-233 0 -383 143.5t-150 366.5zM373 475.5q0 -106.5 60.5 -173t156.5 -66.5q111 0 178 79q43 55 43 158q0 111 -57.5 173.5t-159.5 62.5q-100 0 -160.5 -63.5t-60.5 -170z" />
<glyph unicode="&#xf1;" horiz-adv-x="1110" d="M117 0v948h311v-106q47 78 101.5 110.5t140.5 32.5q147 0 243 -92q47 -49 66.5 -117.5t19.5 -193.5v-582h-311v580q0 70 -35 108.5t-94 38.5t-95 -41t-36 -111v-575h-311zM225 1102q35 260 221 260q51 0 166 -43q49 -18 62 -19q35 0 41 66h198q-14 -119 -73.5 -189.5 t-147.5 -70.5q-49 0 -164 45q-55 18 -59 18q-33 0 -45 -67h-199z" />
<glyph unicode="&#xf2;" horiz-adv-x="1183" d="M59 473q0 225 149.5 368.5t385.5 143.5q231 0 380.5 -147.5t149.5 -374.5q0 -211 -154.5 -355.5t-379.5 -144.5q-231 0 -381 143.5t-150 366.5zM262 1386h299l170 -290h-182zM371 473q0 -104 61.5 -169.5t159.5 -65.5q96 0 157.5 64.5t61.5 164.5q0 113 -57.5 177.5 t-159.5 64.5q-100 0 -161.5 -64.5t-61.5 -171.5z" />
<glyph unicode="&#xf3;" horiz-adv-x="1183" d="M59 473q0 225 149.5 368.5t385.5 143.5q231 0 380.5 -147.5t149.5 -374.5q0 -211 -154.5 -355.5t-379.5 -144.5q-231 0 -381 143.5t-150 366.5zM371 473q0 -104 61.5 -169.5t159.5 -65.5q96 0 157.5 64.5t61.5 164.5q0 113 -57.5 177.5t-159.5 64.5q-100 0 -161.5 -64.5 t-61.5 -171.5zM453 1096l170 290h299l-285 -290h-184z" />
<glyph unicode="&#xf4;" horiz-adv-x="1183" d="M59 473q0 225 149.5 368.5t385.5 143.5q231 0 380.5 -147.5t149.5 -374.5q0 -211 -154.5 -355.5t-379.5 -144.5q-231 0 -381 143.5t-150 366.5zM250 1096l207 290h286l191 -290h-205l-135 141l-139 -141h-205zM371 473q0 -104 61.5 -169.5t159.5 -65.5q96 0 157.5 64.5 t61.5 164.5q0 113 -57.5 177.5t-159.5 64.5q-100 0 -161.5 -64.5t-61.5 -171.5z" />
<glyph unicode="&#xf5;" horiz-adv-x="1183" d="M59 473q0 225 149.5 368.5t385.5 143.5q231 0 380.5 -147.5t149.5 -374.5q0 -211 -154.5 -355.5t-379.5 -144.5q-231 0 -381 143.5t-150 366.5zM262 1102q35 260 221 260q51 0 166 -43q49 -18 62 -19q35 0 41 66h198q-14 -119 -73.5 -189.5t-147.5 -70.5q-49 0 -164 45 q-55 18 -59 18q-33 0 -45 -67h-199zM371 473q0 -104 61.5 -169.5t159.5 -65.5q96 0 157.5 64.5t61.5 164.5q0 113 -57.5 177.5t-159.5 64.5q-100 0 -161.5 -64.5t-61.5 -171.5z" />
<glyph unicode="&#xf6;" horiz-adv-x="1183" d="M59 473q0 225 149.5 368.5t385.5 143.5q231 0 380.5 -147.5t149.5 -374.5q0 -211 -154.5 -355.5t-379.5 -144.5q-231 0 -381 143.5t-150 366.5zM209 1253q0 66 45 111t113 45q66 0 110.5 -46t44.5 -114q0 -63 -45 -108t-110 -45q-68 0 -113 45t-45 112zM371 473 q0 -104 61.5 -169.5t159.5 -65.5q96 0 157.5 64.5t61.5 164.5q0 113 -57.5 177.5t-159.5 64.5q-100 0 -161.5 -64.5t-61.5 -171.5zM659 1253q0 66 45 111t113 45q66 0 111 -46t45 -114q0 -63 -45 -108t-111 -45q-68 0 -113 45t-45 112z" />
<glyph unicode="&#xf7;" d="M16 662v157h994v-157h-994zM393 389q0 51 36 86t87 35q49 0 84 -36t35 -85t-36 -85t-85 -36q-51 0 -86 35t-35 86zM393 1090q0 51 36 85.5t87 34.5q49 0 84 -35.5t35 -85t-35 -85t-86 -35.5q-49 0 -85 35.5t-36 85.5z" />
<glyph unicode="&#xf8;" horiz-adv-x="1185" d="M59 471q0 223 148.5 369.5t376.5 146.5q197 0 356 -117l107 99l65 -72l-100 -96q113 -160 112 -334q0 -213 -153.5 -358.5t-376.5 -145.5q-192 0 -352 115l-111 -98l-68 73l105 97q-109 133 -109 321zM360 465q0 -54 25 -111l342 318q-59 39 -131 39q-109 0 -172.5 -65.5 t-63.5 -180.5zM455 276q66 -39 141 -38q100 0 162.5 65.5t62.5 169.5q1 72 -26 127z" />
<glyph unicode="&#xf9;" horiz-adv-x="1083" d="M102 352v596h312v-573q0 -154 131 -154q59 0 92 35t33 96v596h311v-596q0 -201 -113 -293q-121 -96 -323 -96q-221 0 -338 105q-104 90 -105 284zM211 1386h299l170 -290h-182z" />
<glyph unicode="&#xfa;" horiz-adv-x="1083" d="M102 352v596h312v-573q0 -154 131 -154q59 0 92 35t33 96v596h311v-596q0 -201 -113 -293q-121 -96 -323 -96q-221 0 -338 105q-104 90 -105 284zM401 1096l170 290h299l-284 -290h-185z" />
<glyph unicode="&#xfb;" horiz-adv-x="1083" d="M102 352v596h312v-573q0 -154 131 -154q59 0 92 35t33 96v596h311v-596q0 -201 -113 -293q-121 -96 -323 -96q-221 0 -338 105q-104 90 -105 284zM199 1096l207 290h286l191 -290h-205l-135 141l-140 -141h-204z" />
<glyph unicode="&#xfc;" horiz-adv-x="1083" d="M102 352v596h312v-573q0 -154 131 -154q59 0 92 35t33 96v596h311v-596q0 -201 -113 -293q-121 -96 -323 -96q-221 0 -338 105q-104 90 -105 284zM158 1253q0 66 44.5 111t112.5 45q66 0 111 -46t45 -114q0 -63 -45 -108t-111 -45q-68 0 -112.5 45t-44.5 112zM608 1253 q0 66 45 111t113 45q66 0 111 -46t45 -114q0 -63 -45.5 -108t-110.5 -45q-68 0 -113 45t-45 112z" />
<glyph unicode="&#xfd;" horiz-adv-x="991" d="M-10 948h329l164 -497l191 497h327l-518 -1370h-333l169 440zM356 1096l170 290h299l-284 -290h-185z" />
<glyph unicode="&#xfe;" horiz-adv-x="1280" d="M117 -418v1784h311v-508q106 127 295 127q139 0 254 -65q244 -139 244 -453q0 -231 -131.5 -367.5t-356.5 -136.5q-193 0 -305 119v-500h-311zM428 463q0 -115 61.5 -184.5t161.5 -69.5q102 0 170 71.5t68 180.5q0 115 -64.5 190.5t-162.5 75.5q-102 0 -168 -73.5 t-66 -190.5z" />
<glyph unicode="&#xff;" horiz-adv-x="991" d="M-10 948h329l164 -497l191 497h327l-518 -1370h-333l169 440zM113 1253q0 66 44.5 111t112.5 45q66 0 111 -46t45 -114q0 -63 -45 -108t-111 -45q-68 0 -112.5 45t-44.5 112zM563 1253q0 66 45 111t113 45q66 0 111 -46t45 -114q0 -63 -45.5 -108t-110.5 -45 q-68 0 -113 45t-45 112z" />
<glyph unicode="&#x152;" horiz-adv-x="2058" d="M76 688q0 299 202.5 502t501.5 203q248 0 426 -148v121h764v-268h-438v-279h438v-268h-438v-283h438v-268h-764v125q-152 -152 -422 -152q-303 0 -505.5 205t-202.5 510zM412 680q0 -170 113.5 -284.5t283.5 -114.5q211 0 328 161q82 115 82 248q0 170 -114 282.5 t-282 112.5q-174 0 -292.5 -116.5t-118.5 -288.5z" />
<glyph unicode="&#x153;" horiz-adv-x="1843" d="M59 475q0 225 146.5 367.5t378.5 142.5q236 0 364 -139q145 139 365 139q162 0 285.5 -78t179.5 -213q47 -123 47 -295h-709q8 -74 65.5 -117.5t147.5 -43.5q139 0 215 98l256 -80q-152 -293 -475 -293q-219 0 -377 143q-154 -143 -366 -143q-229 0 -376 143.5 t-147 368.5zM373 481q0 -102 64.5 -172.5t156.5 -70.5q90 0 152.5 64.5t62.5 156.5q0 109 -61.5 180.5t-155.5 71.5q-92 0 -155.5 -66.5t-63.5 -163.5zM1104 565h422q-41 162 -211 162q-162 0 -211 -162z" />
<glyph unicode="&#x178;" horiz-adv-x="1169" d="M-27 1366h396l221 -420l217 420h389l-442 -764v-602h-332v602zM203 1654.5q0 65.5 47 111.5t112.5 46t111.5 -47t46 -114q0 -63 -47 -109.5t-111 -46.5q-66 0 -112.5 47t-46.5 112.5zM647 1654.5q0 65.5 47 111.5t112.5 46t112 -47t46.5 -114q0 -63 -47.5 -109.5 t-110.5 -46.5q-66 0 -113 47t-47 112.5z" />
<glyph unicode="&#x2c6;" d="M170 1096l207 290h287l190 -290h-205l-135 141l-139 -141h-205z" />
<glyph unicode="&#x2dc;" d="M182 1102q35 260 221 260q51 0 166 -43q49 -18 62 -19q35 0 41 66h198q-14 -119 -73.5 -189.5t-147.5 -70.5q-49 0 -164 45q-55 18 -59 18q-33 0 -45 -67h-199z" />
<glyph unicode="&#x2000;" horiz-adv-x="920" />
<glyph unicode="&#x2001;" horiz-adv-x="1841" />
<glyph unicode="&#x2002;" horiz-adv-x="920" />
<glyph unicode="&#x2003;" horiz-adv-x="1841" />
<glyph unicode="&#x2004;" horiz-adv-x="613" />
<glyph unicode="&#x2005;" horiz-adv-x="460" />
<glyph unicode="&#x2006;" horiz-adv-x="306" />
<glyph unicode="&#x2007;" horiz-adv-x="306" />
<glyph unicode="&#x2008;" horiz-adv-x="230" />
<glyph unicode="&#x2009;" horiz-adv-x="368" />
<glyph unicode="&#x200a;" horiz-adv-x="102" />
<glyph unicode="&#x2010;" horiz-adv-x="468" d="M0 365v272h469v-272h-469z" />
<glyph unicode="&#x2011;" horiz-adv-x="468" d="M0 365v272h469v-272h-469z" />
<glyph unicode="&#x2012;" horiz-adv-x="468" d="M0 365v272h469v-272h-469z" />
<glyph unicode="&#x2013;" d="M72 358v258h880v-258h-880z" />
<glyph unicode="&#x2014;" horiz-adv-x="1415" d="M0 385v231h1415v-231h-1415z" />
<glyph unicode="&#x2018;" horiz-adv-x="497" d="M63 963l150 430l205 -50l-90 -446z" />
<glyph unicode="&#x2019;" horiz-adv-x="497" d="M80 948l90 445l264 -64l-149 -432z" />
<glyph unicode="&#x201a;" horiz-adv-x="516" d="M80 -174l96 487l277 -69l-158 -467z" />
<glyph unicode="&#x201c;" horiz-adv-x="919" d="M63 926l160 467l213 -50l-96 -487zM467 926l158 467l215 -50l-97 -487z" />
<glyph unicode="&#x201d;" horiz-adv-x="919" d="M80 905l96 488l277 -70l-158 -467zM483 905l97 488l276 -70l-160 -467z" />
<glyph unicode="&#x201e;" horiz-adv-x="919" d="M80 -174l96 487l277 -69l-158 -467zM483 -174l97 487l276 -69l-160 -467z" />
<glyph unicode="&#x2022;" horiz-adv-x="1366" d="M401 692q0 119 84 202t205 83q113 0 196 -84t83 -199q0 -119 -83 -201.5t-200 -82.5t-201 82.5t-84 199.5z" />
<glyph unicode="&#x2026;" horiz-adv-x="1689" d="M109 141.5q0 75.5 49 123.5t125 48q74 0 122 -49t48 -125q0 -74 -49.5 -122t-122.5 -48q-76 0 -124 48.5t-48 124zM672 141.5q0 75.5 49 123.5t125 48q74 0 122 -49t48 -125q0 -74 -49 -122t-123 -48q-76 0 -124 48.5t-48 124zM1235 141.5q0 75.5 49 123.5t125 48 q74 0 122 -49t48 -125q0 -74 -49 -122t-123 -48q-76 0 -124 48.5t-48 124z" />
<glyph unicode="&#x202f;" horiz-adv-x="368" />
<glyph unicode="&#x2039;" horiz-adv-x="530" d="M68 492l188 342h193l-193 -342l193 -334h-193z" />
<glyph unicode="&#x203a;" horiz-adv-x="530" d="M82 158l192 342l-192 334h192l189 -334l-189 -342h-192z" />
<glyph unicode="&#x205f;" horiz-adv-x="460" />
<glyph unicode="&#x2122;" horiz-adv-x="1767" d="M12 1194v172h613v-172h-195v-647h-223v647h-195zM729 547v819h256l217 -424l217 424h256v-819h-223v434l-250 -477l-250 477v-434h-223z" />
<glyph unicode="&#x25fc;" horiz-adv-x="952" d="M0 0v952h952v-952h-952z" />
<glyph unicode="&#xfb01;" horiz-adv-x="1114" d="M43 690v258h94v17q0 205 96.5 303t296.5 98h29v-289q-111 -14 -110 -112v-17h110v-258h-110v-690h-312v690h-94zM678 1224.5q0 71.5 47 119t121 47.5q72 0 118 -47.5t46 -120.5q0 -70 -47.5 -117t-119 -47t-118.5 47t-47 118.5zM688 0v948h311v-948h-311z" />
<glyph unicode="&#xfb02;" horiz-adv-x="1114" d="M43 690v258h94v17q0 205 96.5 303t296.5 98h29v-289q-111 -14 -110 -112v-17h110v-258h-110v-690h-312v690h-94zM688 0v1366h311v-1366h-311z" />
</font>
</defs>
</svg>
