<svg class="svg-icon" xmlns="http://www.w3.org/2000/svg" viewBox="0 0 20 20" role="img" aria-hidden="true">
    <path class="svg-icon-path"
          d="M19 10c0 2.5-.9 4.6-2.6 6.4S12.5 19 10 19c-2.5 0-4.6-.9-6.4-2.6S1 12.5 1 10c0-2.5.9-4.6 2.6-6.4S7.5 1 10 1c2.5 0 4.6.9 6.4 2.6S19 7.5 19 10zM4.3 15.1c.2-.3.3-.5.5-.8.2-.2.6-.7 1.2-1.3.5-.6 1.2-1.2 2-1.7s1.7-.9 2.6-1.2h.1c.1 0 .1 0 .1-.1-.2-.4-.4-.9-.6-1.3-1.1.3-2.3.6-3.6.8s-2.3.2-3 .3H2.3v.2c0 2 .7 3.7 2 5.1zM2.5 8.4c2.4 0 4.8-.3 7.1-.9-.3-.5-.6-1.1-1-1.6-.3-.6-.6-1-.8-1.4-.2-.4-.5-.7-.7-1-.2-.3-.3-.4-.3-.5C4.5 4.1 3 5.9 2.5 8.4zM13 17.1c-.3-1.8-.8-3.7-1.7-5.8-.8.3-1.6.6-2.3 1.1s-1.3.8-1.7 1.2c-.4.4-.8.8-1.1 1.2-.3.4-.6.7-.7.9-.1.2-.2.4-.2.5 1.4 1.1 3 1.6 4.7 1.6 1-.1 2-.3 3-.7zM8.2 2.5c1.5 2.3 2.5 3.8 2.9 4.5.8-.3 1.6-.7 2.2-1.1.7-.4 1.1-.8 1.3-1.1.2-.3.4-.5.5-.6C13.7 2.9 12 2.3 10 2.3c-.6 0-1.2.1-1.8.2zm3.5 5.7c.2.4.4.8.5 1.1 0 0 .1.1.1.2s.1.2.1.2c.8-.1 1.6-.1 2.5-.1.8.1 1.5.1 2 .2s.8.1.9.2c0-1.8-.6-3.4-1.7-4.8-1.2 1.2-2.6 2.2-4.4 3zm5.9 3c-.2-.1-.4-.1-.8-.2s-1-.2-1.7-.2c-.8-.1-1.5 0-2.2.1.4 1.2.9 3 1.5 5.5 1.8-1.3 2.9-3 3.2-5.2z"/>
</svg>
