<svg id="Layer_1" class="svg-icon" xmlns="http://www.w3.org/2000/svg" viewBox="0 0 20 20" role="img" aria-labelledby="title">
    <title>Github</title>
    <path class="svg-icon-path"
          d="M17.6 10c-.3.8-.7 1.3-1.3 1.7-.6.4-1.1.7-1.7.9-.6.2-1.2.3-2 .4.5.5.8 1.2.8 2.2V19H7.7v-2.8c-.7.2-1.2.3-1.7.2-.5-.1-.8-.2-1.1-.3-.3-.1-.5-.3-.7-.5-.2-.2-.3-.4-.4-.5 0-.1-.1-.2-.1-.2-.4-.9-.8-1.5-1.3-1.7-.4-.3-.5-.5-.4-.6s.2-.2.3-.2h.3c.8.1 1.4.5 1.8 1.2.3.5.7.9 1.2 1.1s.9.3 1.2.2l.9-.3c.1-.7.4-1.2.8-1.5-.8-.1-1.4-.2-2-.4s-1.1-.5-1.7-.9c-.6-.4-1-1-1.3-1.7-.2-.8-.4-1.8-.4-2.8 0-1.3.4-2.3 1.2-3.2-.3-.9-.3-2 .2-3.1h.3c.2 0 .5.1 1.1.3.5.2 1.1.5 1.8 1 1-.3 2-.4 2.9-.4 1 0 2 .1 3 .4 1.5-1 2.5-1.4 3.2-1.2.5 1.2.5 2.3.1 3.1C17.6 5 18 6 18 7.3c0 1-.1 2-.4 2.7zM3.2 12.8c-.1-.1-.2-.1-.2 0 0 0 0 .1.1.2h.2c0-.1 0-.1-.1-.2zm.6.5c-.1-.1-.2-.1-.2-.1v.2c.1.1.2.1.2.1.1 0 .1-.1 0-.2zm.5.6c-.1-.1-.2-.2-.2-.1-.1 0-.1.1 0 .3.1.1.2.2.2.1v-.3zm.5.6c-.1-.2-.2-.2-.3 0-.1.1 0 .2.1.3.1.1.2.1.3 0 .1-.1.1-.2-.1-.3zm.5.6c0 .1 0 .2.2.2.1 0 .2 0 .3-.1 0-.1 0-.2-.2-.2-.2-.1-.3 0-.3.1zm1.2 0c-.2 0-.2.1-.2.2s.1.2.2.2c.2 0 .2-.1.2-.2s-.1-.2-.2-.2zm1.1 0c0-.1-.1-.1-.2-.1-.2 0-.2.1-.2.2s.1.2.3.1c.1 0 .1-.1.1-.2z"/>
</svg>
