<svg class="svg-icon" xmlns="http://www.w3.org/2000/svg" viewBox="0 0 20 20" role="img" aria-hidden="true">
    <path class="svg-icon-path"
          d="M4.7 4.8c-.4.4-.9.6-1.5.6s-1.1-.2-1.5-.6-.7-1-.7-1.6c0-.6.2-1.1.6-1.5.5-.4 1-.7 1.6-.7.6 0 1.1.2 1.5.7.4.4.6.9.6 1.5.1.6-.2 1.1-.6 1.6zm.6 2.4v11.4c0 .1 0 .2-.1.3-.2 0-.3.1-.4.1H1.6c-.1 0-.2 0-.3-.1-.1-.1-.1-.2-.1-.3V7.2c0-.1 0-.2.1-.3.1-.1.2-.1.3-.1h3.2c.1 0 .2 0 .3.1.1.1.2.2.2.3zm9.2 3c-.3-.3-.7-.4-1.3-.4-.8 0-1.3.2-1.6.7-.3.4-.5 1.1-.5 1.9v6.2c0 .1 0 .2-.1.3-.1.1-.2.1-.3.1H7.4c-.1 0-.2 0-.3-.1-.1-.2-.1-.3-.1-.4V7.2c0-.1 0-.2.1-.4.1-.1.2-.1.3-.1h3.1c.1 0 .2 0 .3.1 0 0 .1.1.1.2V7.6c.8-.8 1.8-1.1 3.2-1.1 1.5 0 2.7.4 3.5 1.1.8.8 1.3 1.9 1.3 3.3v7.7c0 .1 0 .2-.1.3-.1.1-.2.1-.3.1h-3.3c-.1 0-.2 0-.3-.1-.1-.1-.1-.2-.1-.3v-6.9c0-.7-.1-1.2-.3-1.5z"/>
</svg>
