<svg class="svg-icon" xmlns="http://www.w3.org/2000/svg" viewBox="0 0 20 20" role="img" aria-hidden="true">
    <path class="svg-icon-path"
          d="M17.2 6.3v.5c0 1.7-.4 3.3-1.2 4.9-.8 1.6-2 2.9-3.6 4s-3.5 1.6-5.7 1.6c-2.1 0-4-.6-5.7-1.7h.9c1.8 0 3.3-.5 4.6-1.6-.8 0-1.5-.2-2.1-.7s-1.1-1-1.4-1.8c.2 0 .4.1.7.1.4 0 .7 0 1-.1-.8-.2-1.5-.6-2.1-1.3s-.9-1.4-.9-2.3v-.1c.5.3 1.1.5 1.7.5-1.1-.7-1.7-1.7-1.7-3.1 0-.6.2-1.2.5-1.9C4.1 5.7 6.7 7 9.8 7.2v-.8c0-1 .4-1.9 1.1-2.6.7-.7 1.6-1.1 2.6-1.1 1.1 0 2 .4 2.7 1.2.9-.2 1.7-.5 2.4-.9-.3.9-.8 1.5-1.6 2 .8-.1 1.5-.3 2.1-.6-.6.8-1.2 1.4-1.9 1.9z"/>
</svg>
